Coordinates
version=1
nRows=17
nColumns=63
inDegrees=yes

Units are S.I. units (second, meters, Newtons, ...)
If the header above contains a line with 'inDegrees', this indicates whether rotational values are in degrees (yes) or radians (no).

endheader
time	pelvis_tilt	pelvis_list	pelvis_rotation	pelvis_tx	pelvis_ty	pelvis_tz	hip_flexion_r	hip_adduction_r	hip_rotation_r	knee_angle_r	knee_angle_r_beta	ankle_angle_r	subtalar_angle_r	mtp_angle_r	hip_flexion_l	hip_adduction_l	hip_rotation_l	knee_angle_l	knee_angle_l_beta	ankle_angle_l	subtalar_angle_l	mtp_angle_l	L5_S1_Flex_Ext	L5_S1_Lat_Bending	L5_S1_axial_rotation	L4_L5_Flex_Ext	L4_L5_Lat_Bending	L4_L5_axial_rotation	L3_L4_Flex_Ext	L3_L4_Lat_Bending	L3_L4_axial_rotation	L2_L3_Flex_Ext	L2_L3_Lat_Bending	L2_L3_axial_rotation	L1_L2_Flex_Ext	L1_L2_Lat_Bending	L1_L2_axial_rotation	L1_T12_Flex_Ext	L1_T12_Lat_Bending	L1_T12_axial_rotation	Abs_r3	Abs_r2	Abs_r1	Abs_t1	Abs_t2	neck_flexion	neck_bending	neck_rotation	arm_flex_r	arm_add_r	arm_rot_r	elbow_flex_r	pro_sup_r	wrist_flex_r	wrist_dev_r	arm_flex_l	arm_add_l	arm_rot_l	elbow_flex_l	pro_sup_l	wrist_flex_l	wrist_dev_l
17.000000	-9.338513	-10.958568	89.086216	0.202478	1.018132	0.589155	2.948414	-5.302980	-5.897914	8.359406	0.145899	28.016149	4.744201	0.000000	4.775467	4.045790	-8.425891	11.402784	0.199016	26.936633	14.892457	0.000000	-0.104995	-0.515715	-0.510270	-0.194986	-0.685900	-0.542162	-0.172496	-1.253908	-0.542162	-0.119999	-1.253908	-0.446487	-0.097498	-1.051645	-0.414595	-0.059994	-0.798842	-0.382703	-0.749967	-5.833866	-2.837970	0.000000	0.000000	19.160839	-1.981572	-2.164502	15.177448	-7.543062	162.691599	0.147179	8.662452	-0.139631	-11.025300	12.414829	-12.500275	167.604717	2.842084	0.052678	-0.864698	-12.234738
17.020000	-9.456210	-10.707873	89.080517	0.202975	1.018751	0.587992	2.520168	-5.370117	-5.726932	8.113572	0.141609	27.891321	4.583584	0.000000	4.187110	4.183338	-8.332315	10.824019	0.188915	26.386371	14.907623	0.000000	-0.098874	-0.540658	-0.549124	-0.183619	-0.719075	-0.583444	-0.162440	-1.314556	-0.583444	-0.113003	-1.314556	-0.480483	-0.091815	-1.102510	-0.446163	-0.056497	-0.837479	-0.411843	-0.706249	-6.116031	-3.054061	0.000000	0.000000	19.119862	-1.956273	-1.997585	15.208393	-7.465144	162.510888	0.000789	7.179648	-1.161703	-11.367278	12.133750	-12.758143	170.394800	2.106585	-2.029109	-0.688495	-13.007843
17.040000	-9.565948	-10.437770	89.071446	0.203474	1.019251	0.586601	2.053022	-5.435028	-5.659376	7.844595	0.136914	27.854929	4.544199	0.000000	3.538048	4.319829	-8.205606	10.173262	0.177557	25.889196	14.880867	0.000000	-0.094242	-0.564571	-0.574002	-0.175016	-0.750880	-0.609877	-0.154829	-1.372698	-0.609877	-0.107709	-1.372698	-0.502252	-0.087513	-1.151273	-0.466376	-0.053850	-0.874521	-0.430501	-0.673158	-6.386541	-3.192426	0.000000	0.000000	19.038143	-1.843841	-1.856194	15.154242	-7.500769	161.971752	-0.047037	5.884067	-2.387761	-11.687672	11.805440	-13.173452	171.302099	1.692522	-2.255039	-0.735926	-13.531729
17.060000	-9.654405	-10.141978	89.047068	0.203970	1.019620	0.584990	1.550157	-5.487313	-5.713247	7.573303	0.132179	27.896029	4.635662	0.000000	2.840946	4.437770	-8.092910	9.500964	0.165823	25.477499	14.837274	0.000000	-0.092644	-0.584359	-0.583630	-0.172049	-0.777197	-0.620107	-0.152205	-1.420810	-0.620107	-0.105883	-1.420810	-0.510676	-0.086029	-1.191624	-0.474199	-0.052937	-0.905172	-0.437723	-0.661747	-6.610383	-3.245975	0.000000	0.000000	18.911543	-1.731600	-1.723325	15.022736	-7.655121	161.126779	0.055675	4.974142	-3.705983	-11.867047	11.441675	-13.742667	170.131902	1.677694	-0.322978	-0.974041	-13.709783
17.080000	-9.716455	-9.830048	89.015431	0.204422	1.019836	0.583165	1.024490	-5.524493	-5.892985	7.315985	0.127688	28.016034	4.857246	0.000000	2.113048	4.533384	-7.965980	8.828212	0.154081	25.170372	14.759131	0.000000	-0.093245	-0.598971	-0.576116	-0.173165	-0.796632	-0.612123	-0.153192	-1.456339	-0.612123	-0.106570	-1.456339	-0.504101	-0.086587	-1.221422	-0.468094	-0.053280	-0.927806	-0.432087	-0.666039	-6.775682	-3.204183	0.000000	0.000000	18.734638	-1.604108	-1.597297	14.789187	-7.933092	159.832935	0.333803	4.518480	-5.056273	-11.930110	11.033160	-14.451093	166.556116	2.120761	3.992379	-1.406583	-13.486790
17.100000	-9.699141	-9.512747	88.982937	0.204719	1.019970	0.581101	0.480673	-5.493047	-6.128375	7.062596	0.123266	28.148483	5.117065	0.000000	1.366629	4.563813	-7.746860	8.167360	0.142547	24.952189	14.556462	0.000000	-0.094994	-0.598577	-0.554004	-0.176414	-0.796108	-0.588629	-0.156066	-1.455381	-0.588629	-0.108569	-1.455381	-0.484754	-0.088212	-1.220619	-0.450128	-0.054280	-0.927196	-0.415503	-0.678534	-6.771225	-3.081205	0.000000	0.000000	18.501339	-1.527841	-1.358419	14.451644	-8.355756	157.883665	0.748287	4.645653	-6.334334	-11.918011	10.739724	-14.671934	167.745662	1.740576	4.068968	-1.461372	-13.672734
17.120000	-9.627051	-9.198876	88.936268	0.204903	1.020008	0.578930	-0.044549	-5.419208	-6.426194	6.852212	0.119594	28.309506	5.436796	0.000000	0.630580	4.546301	-7.477611	7.550731	0.131785	24.826448	14.282702	0.000000	-0.098905	-0.587637	-0.516086	-0.183677	-0.781558	-0.548341	-0.162491	-1.428782	-0.548341	-0.113039	-1.428782	-0.451575	-0.091843	-1.198310	-0.419320	-0.056514	-0.910250	-0.387064	-0.706470	-6.647472	-2.870315	0.000000	0.000000	18.230537	-1.470591	-1.036359	14.034273	-8.885851	155.332491	1.259599	4.964569	-7.393615	-11.837134	10.458467	-14.780521	168.844791	1.418838	4.074150	-1.473192	-13.777760
17.140000	-9.530928	-8.905192	88.898657	0.204994	1.019971	0.576743	-0.523172	-5.331600	-6.815648	6.702423	0.116979	28.508483	5.827027	0.000000	-0.055756	4.505175	-7.171696	7.011567	0.122375	24.744981	13.968488	0.000000	-0.104177	-0.570640	-0.467685	-0.193467	-0.758951	-0.496916	-0.171153	-1.387454	-0.496916	-0.119064	-1.387454	-0.409225	-0.096739	-1.163649	-0.379994	-0.059527	-0.883921	-0.350764	-0.744127	-6.455194	-2.601126	0.000000	0.000000	17.992828	-1.415185	-0.606332	13.556416	-9.464555	152.390348	1.773560	5.198534	-8.116936	-11.648739	10.219861	-14.791318	170.052032	1.138741	3.971941	-1.298300	-13.784492
17.160000	-9.385900	-8.629866	88.838659	0.205004	1.019890	0.574565	-0.955311	-5.205703	-7.263356	6.599614	0.115185	28.712816	6.292309	0.000000	-0.707334	4.420716	-6.823175	6.519196	0.113781	24.704395	13.577010	0.000000	-0.109771	-0.544298	-0.408351	-0.203855	-0.723917	-0.433872	-0.180342	-1.323407	-0.433872	-0.125457	-1.323407	-0.357307	-0.101933	-1.109933	-0.331785	-0.062723	-0.843118	-0.306263	-0.784080	-6.157211	-2.271123	0.000000	0.000000	17.751514	-1.378228	-0.076110	13.051162	-10.111987	148.825743	2.361347	5.240273	-8.492443	-11.361010	10.004024	-14.703943	170.844758	0.978726	3.901418	-1.050783	-13.766494
17.180000	-9.199689	-8.378647	88.775198	0.204920	1.019785	0.572478	-1.335513	-5.038337	-7.662138	6.534898	0.114055	28.884631	6.648993	0.000000	-1.303913	4.296497	-6.436545	6.087334	0.106244	24.707075	13.125423	0.000000	-0.115606	-0.509914	-0.346386	-0.214692	-0.678186	-0.368035	-0.189929	-1.239805	-0.368035	-0.132126	-1.239805	-0.303087	-0.107352	-1.039816	-0.281438	-0.066057	-0.789857	-0.259789	-0.825761	-5.768248	-1.926492	0.000000	0.000000	17.539107	-1.391102	0.528836	12.563759	-10.789381	145.086473	2.974060	4.957151	-8.576625	-11.049066	9.815417	-14.536525	171.275490	0.930079	3.800130	-0.722912	-13.693538
17.200000	-8.989690	-8.150589	88.698115	0.204779	1.019672	0.570532	-1.661565	-4.850838	-8.040916	6.511937	0.113655	29.032155	6.958995	0.000000	-1.843730	4.147915	-6.084157	5.710913	0.099674	24.765960	12.699977	0.000000	-0.122061	-0.470404	-0.283175	-0.226679	-0.625638	-0.300874	-0.200534	-1.143741	-0.300874	-0.139503	-1.143741	-0.247778	-0.113346	-0.959249	-0.230080	-0.069746	-0.728656	-0.212381	-0.871868	-5.321309	-1.574936	0.000000	0.000000	17.355000	-1.433687	1.186901	12.111002	-11.478021	140.942376	3.622542	4.613381	-8.398084	-10.774335	9.654450	-14.317243	171.170579	1.002829	3.687080	-0.277411	-13.599534
17.220000	-8.772246	-7.953221	88.600356	0.204608	1.019544	0.568770	-1.931139	-4.652883	-8.284776	6.512268	0.113661	29.123718	7.092197	0.000000	-2.314448	3.992064	-5.745626	5.389085	0.094057	24.880512	12.265569	0.000000	-0.128179	-0.428683	-0.219173	-0.238041	-0.570149	-0.232871	-0.210585	-1.042300	-0.232871	-0.146496	-1.042300	-0.191776	-0.119027	-0.874171	-0.178078	-0.073241	-0.664030	-0.164380	-0.915569	-4.849349	-1.218974	0.000000	0.000000	17.204558	-1.535846	1.825722	11.714222	-12.151990	136.688703	4.290187	4.199489	-8.031469	-10.581498	9.510015	-14.066365	170.654536	1.148838	3.555036	0.227616	-13.500000
17.240000	-8.564983	-7.792542	88.480909	0.204415	1.019390	0.567222	-2.137304	-4.467301	-8.443518	6.537787	0.114106	29.187991	7.146585	0.000000	-2.712215	3.847278	-5.439844	5.111189	0.089207	25.051691	11.848566	0.000000	-0.132919	-0.387819	-0.156235	-0.246844	-0.515799	-0.166000	-0.218372	-0.942942	-0.166000	-0.151913	-0.942942	-0.136706	-0.123428	-0.790839	-0.126941	-0.075950	-0.600731	-0.117176	-0.949426	-4.387080	-0.868933	0.000000	0.000000	17.086134	-1.697014	2.392892	11.382443	-12.807567	132.419131	5.000459	3.793451	-7.502944	-10.477464	9.361205	-13.804803	169.792968	1.319209	3.437843	0.695618	-13.419734
17.260000	-8.371177	-7.675176	88.352545	0.204222	1.019205	0.565930	-2.277137	-4.289731	-8.466564	6.575671	0.114767	29.216408	7.061481	0.000000	-3.014384	3.707297	-5.238928	4.908730	0.085674	25.295252	11.554488	0.000000	-0.135899	-0.349807	-0.093425	-0.252378	-0.465243	-0.099264	-0.223268	-0.850520	-0.099264	-0.155319	-0.850520	-0.081747	-0.126196	-0.713326	-0.075908	-0.077653	-0.541851	-0.070069	-0.970711	-3.957084	-0.519603	0.000000	0.000000	17.021023	-1.920271	2.796520	11.111102	-13.440483	128.349426	5.760111	3.501030	-7.005552	-10.434134	9.229817	-13.548973	168.903542	1.480625	3.312777	1.056567	-13.370962
17.280000	-8.202221	-7.588568	88.229758	0.204036	1.019012	0.564860	-2.373448	-4.132217	-8.365806	6.614419	0.115443	29.210245	6.878487	0.000000	-3.241209	3.584410	-5.117750	4.772242	0.083291	25.585895	11.363952	0.000000	-0.137455	-0.317114	-0.035041	-0.255267	-0.421761	-0.037231	-0.225824	-0.771031	-0.037231	-0.157097	-0.771031	-0.030660	-0.127640	-0.646659	-0.028470	-0.078542	-0.491209	-0.026280	-0.981825	-3.587255	-0.194885	0.000000	0.000000	16.998360	-2.173594	3.025867	10.900562	-14.033392	124.618902	6.553706	3.398549	-6.565037	-10.401896	9.113941	-13.320838	168.040507	1.635073	3.168796	1.249474	-13.351931
17.300000	-8.057749	-7.519389	88.121626	0.203875	1.018833	0.564032	-2.447611	-3.988086	-8.119255	6.633827	0.115782	29.177927	6.554256	0.000000	-3.413526	3.477397	-5.057295	4.681023	0.081699	25.890654	11.267561	0.000000	-0.139141	-0.290517	0.018218	-0.258399	-0.386388	0.019357	-0.228595	-0.706364	0.019357	-0.159025	-0.706364	0.015941	-0.129207	-0.592423	0.014802	-0.079505	-0.450011	0.013664	-0.993873	-3.286389	0.101324	0.000000	0.000000	17.001027	-2.407796	3.084433	10.756799	-14.576992	121.289682	7.365803	3.570571	-6.268919	-10.327246	9.023728	-13.131096	167.090654	1.792167	3.053059	1.264254	-13.365820
17.320000	-7.942365	-7.462582	88.040046	0.203731	1.018675	0.563465	-2.500639	-3.864690	-7.758863	6.645406	0.115984	29.142450	6.139071	0.000000	-3.525978	3.387610	-5.077013	4.656869	0.081278	26.211214	11.292561	0.000000	-0.141031	-0.270217	0.061658	-0.261909	-0.359389	0.065511	-0.231701	-0.657006	0.065511	-0.161185	-0.657006	0.053950	-0.130962	-0.551027	0.050097	-0.080585	-0.418567	0.046243	-1.007373	-3.056753	0.342921	0.000000	0.000000	17.045003	-2.598383	3.032365	10.684910	-15.053208	118.520917	8.155685	4.001949	-6.254408	-10.180000	8.959871	-12.980710	166.225547	1.939530	2.953178	1.039931	-13.391679
